<?xml version="1.0" encoding="UTF-8" standalone="no"?>
<!DOCTYPE svg PUBLIC "-//W3C//DTD SVG 1.1//EN" "http://www.w3.org/Graphics/SVG/1.1/DTD/svg11.dtd">
<!-- Created with Vectornator (http://vectornator.io/) -->
<svg height="100%" stroke-miterlimit="10" style="fill-rule:nonzero;clip-rule:evenodd;stroke-linecap:round;stroke-linejoin:round;" version="1.1" viewBox="0 0 24 24" width="100%" xml:space="preserve" xmlns="http://www.w3.org/2000/svg" xmlns:vectornator="http://vectornator.io" xmlns:xlink="http://www.w3.org/1999/xlink">
<defs/>
<g id="Ebene-1" vectornator:layerName="Ebene 1">
<path d="M1.80622 9.61596L3.65124 9.60109L4.08394 9.62422C4.08394 9.62422 4.09516 11.0916 4.78238 12.6196C5.46961 14.1477 5.88923 14.8639 6.64021 15.7113C8.91299 18.276 11.537 16.9211 11.537 16.9211C11.537 16.9211 11.9014 22.1635 14.3447 21.8405C16.6509 21.5356 15.2312 18.2881 15.2312 18.2881C15.2312 18.2881 18.2086 19.2798 18.9728 17.9684C20.4583 15.4194 14.9836 14.8437 14.1698 13.7942C13.356 12.7447 16.7158 13.967 20.21 10.7875C22.1048 9.06327 23.557 3.48344 20.6144 3.2628C17.6719 3.04217 11.1061 9.60009 11.1061 9.60009C11.1061 9.60009 9.72693 6.71969 7.86191 6.48991C4.8315 6.11656 3.99371 9.62543 3.99371 9.62543L1.80622 9.61596Z" fill="none" opacity="1" stroke="#000000" stroke-linecap="butt" stroke-linejoin="round" stroke-width="1.5"/>
</g>
</svg>
